<svg width="400" height="400" viewBox="0 0 400 400" fill="none" xmlns="http://www.w3.org/2000/svg">
<path d="M183.689 227.852L210.968 231.671C218.536 231.909 225.352 236.442 224.608 244.656C223.795 253.63 215.933 258.568 198.747 258.568C189.254 258.568 165.74 257.258 153.301 244.765L144.462 253.439C160.23 269.261 187.727 270.952 199.02 270.952C212.987 270.952 223.298 268.115 229.682 262.496C234.646 258.125 236.998 251.921 237.32 244.819C237.619 238.215 235.817 231.274 230.937 226.815C225.672 222.005 219.261 220.723 212.66 219.504L185.381 215.685C170.101 214.366 155.69 208.015 144.408 197.627C139.568 192.076 135.875 185.621 133.544 178.636C131.212 171.65 130.287 164.272 130.823 156.927C130.823 118.3 160.993 92.3846 206.222 92.3846C238.138 92.3846 260.07 100.023 277.147 117.263L285.876 108.479C265.908 88.8929 241.139 80 205.84 80C179.925 80 158.102 87.3108 142.28 101.114C134.373 108.026 128.089 116.597 123.873 126.216C119.658 135.834 117.616 146.265 117.893 156.763C117.344 165.742 118.585 174.741 121.545 183.236C124.504 191.731 129.123 199.553 135.133 206.247C148.499 218.598 165.567 226.192 183.689 227.852Z" fill="#CB333B"/>
<path d="M224.826 169.584L197.547 165.874C191.612 165.396 183.631 161.857 183.471 154.962C183.471 147.761 189.964 140.45 204.367 140.45C218.058 140.45 232.099 141.656 242.394 151.853L250.85 143.069C238.072 130.29 221.264 128.065 204.094 128.065C181.235 128.065 170.814 142.032 170.814 155.017C170.965 168.513 183.797 177.246 196.293 178.15L223.571 181.969C238.488 183.141 252.646 189.025 263.999 198.772C273.928 208.429 278.729 222.996 278.729 243.237C278.729 275.208 253.906 307.452 198.529 307.452H197.656C161.103 307.452 137.316 299.213 118.057 280.173L109 288.575C130.387 310.398 157.12 320 198.311 320C253.742 320 291.06 289.338 291.06 243.619C291.06 219.613 284.949 202.1 272.401 189.989C259.132 178.275 242.458 171.124 224.826 169.584Z" fill="#CB333B"/>
</svg>
